<svg id="Layer_1" viewBox="0 0 24 24" xmlns="http://www.w3.org/2000/svg" data-name="Layer 1"><path d="m23.256 12.742c-.99-.99-2.6-.99-3.59 0l-7.668 7.667v3.59h3.59l7.667-7.667c.479-.48.744-1.117.744-1.795s-.264-1.316-.744-1.795zm-18.756 4.307c-1.528-.81-4.387-2.339-4.5-5.372v-3.021c0-.736.47-1.386 1.169-1.615l3.331-1.094 3.331 1.094c.699.229 1.169.879 1.169 1.615v3.021c-.115 3.034-2.97 4.56-4.5 5.372zm16.914-12.049h-4.414v-4.414zm-8.834 12-2.581 2.581v4.419h-7.999v-6.074c.767.511 1.738.973 2.5 1.38 1.341-.716 2.341-1.128 3.737-2.306zm9.42-10v3.053c-.179-.021-.356-.053-.539-.053-1.213 0-2.353.472-3.209 1.329l-1.252 1.252v-1.581h-6v-2.343c0-1.603-1.023-3.016-2.545-3.515l-3.955-1.299-2.5.821v-1.663c0-1.657 1.343-3 3-3h10v7h7zm-12 8c.378-.598.682-1.262.85-2h5.731l-2 2h-4.58z"/></svg>